<svg width="16" height="16" viewBox="0 0 16 16" fill="none" xmlns="http://www.w3.org/2000/svg">
<path d="M15.7061 12.5333L12.0551 9.21377C11.8825 9.05691 11.6558 8.97325 11.4227 8.98046C11.1896 8.98766 10.9684 9.08517 10.8058 9.25239L8.65655 11.4627C8.13922 11.3639 7.09917 11.0397 6.02859 9.9718C4.958 8.90032 4.63377 7.85757 4.53767 7.34383L6.7462 5.19368C6.91363 5.03123 7.01128 4.81001 7.01848 4.57684C7.02569 4.34367 6.94189 4.11685 6.78482 3.94437L3.46619 0.294314C3.30905 0.121293 3.09065 0.0163429 2.85738 0.00175298C2.62411 -0.0128369 2.39434 0.0640828 2.21687 0.216176L0.2679 1.88762C0.112621 2.04346 0.0199401 2.25087 0.00743838 2.47051C-0.00603375 2.69505 -0.262902 8.01385 3.86137 12.1399C7.45933 15.737 11.9662 16.0001 13.2074 16.0001C13.3889 16.0001 13.5002 15.9947 13.5299 15.9929C13.7495 15.9807 13.9568 15.8876 14.1119 15.7316L15.7824 13.7817C15.9351 13.6048 16.0126 13.3752 15.9983 13.142C15.9841 12.9087 15.8792 12.6903 15.7061 12.5333Z" fill="black"/>
</svg>
