<svg width="16" height="13" viewBox="0 0 16 13" fill="none" xmlns="http://www.w3.org/2000/svg">
<path d="M13.6 0H2.4C1.76348 0 1.15303 0.252856 0.702944 0.702944C0.252856 1.15303 0 1.76348 0 2.4V10.4C0 11.0365 0.252856 11.647 0.702944 12.0971C1.15303 12.5471 1.76348 12.8 2.4 12.8H13.6C14.2365 12.8 14.847 12.5471 15.2971 12.0971C15.7471 11.647 16 11.0365 16 10.4V2.4C16 1.76348 15.7471 1.15303 15.2971 0.702944C14.847 0.252856 14.2365 0 13.6 0V0ZM13.064 1.6L8 5.4L2.936 1.6H13.064ZM13.6 11.2H2.4C2.18783 11.2 1.98434 11.1157 1.83431 10.9657C1.68429 10.8157 1.6 10.6122 1.6 10.4V2.6L7.52 7.04C7.65848 7.14386 7.8269 7.2 8 7.2C8.1731 7.2 8.34152 7.14386 8.48 7.04L14.4 2.6V10.4C14.4 10.6122 14.3157 10.8157 14.1657 10.9657C14.0157 11.1157 13.8122 11.2 13.6 11.2Z" fill="black"/>
</svg>
