<svg width="180" height="180" viewBox="0 0 180 180" fill="none" xmlns="http://www.w3.org/2000/svg">
<rect width="180" height="180" fill="white"/>
<path fill-rule="evenodd" clip-rule="evenodd" d="M44 23C44 21.8954 44.8954 21 46 21C47.1046 21 48 21.8954 48 23V33H88V23C88 21.8954 88.8954 21 90 21C91.1046 21 92 21.8954 92 23V35V75H132V70C132 68.8954 132.895 68 134 68C135.105 68 136 68.8954 136 70V77V113V154H140C141.105 154 142 154.895 142 156C142 157.105 141.105 158 140 158H134H128C126.895 158 126 157.105 126 156C126 154.895 126.895 154 128 154H129.273L111.971 136.697L94.6684 154H96C97.1046 154 98 154.895 98 156C98 157.105 97.1046 158 96 158H90H84C82.8954 158 82 157.105 82 156C82 154.895 82.8954 154 84 154H85.2735L67.971 136.697L50.6684 154H52C53.1046 154 54 154.895 54 156C54 157.105 53.1046 158 52 158H46H40C38.8954 158 38 157.105 38 156C38 154.895 38.8954 154 40 154H44V113V77V35V23ZM132 151.07V116.668L114.799 133.869L132 151.07ZM132 108.847V81.1525L114.691 95L132 108.847ZM70.7994 55.869L88 38.6684V73.0696L70.7994 55.869ZM70.6906 95L88 81.1525V108.847L70.6906 95ZM70.7994 133.869L88 116.668V151.07L70.7994 133.869ZM109.143 133.869L92 116.727V151.012L109.143 133.869ZM92 81.1525V108.847L109.309 95L92 81.1525ZM50.6906 79L68 92.8475L85.3093 79H50.6906ZM84.2735 75H51.6684L67.971 58.6975L84.2735 75ZM94.6906 79L112 92.8475L129.309 79H94.6906ZM68 97.1525L85.3094 111H50.6906L68 97.1525ZM67.971 131.041L51.9304 115H84.0116L67.971 131.041ZM111.971 131.041L95.9304 115H128.012L111.971 131.041ZM112 97.1525L129.309 111H94.6906L112 97.1525ZM48 81.1525L65.3094 95L48 108.847V81.1525ZM48 151.012L65.1425 133.869L48 116.727V151.012ZM48 73.0116L65.1425 55.869L48 38.7265V73.0116ZM67.971 53.0406L84.0116 37H51.9304L67.971 53.0406Z" fill="black"/>
</svg>
